HIERARCHY
ROOT pelvis
{
  OFFSET 0 100 0
  CHANNELS 6 Xposition Yposition Zposition Zrotation Xrotation Yrotation
  JOINT pelvis_right_femur
  {
    OFFSET -10.78128 -3.44521 -0.5502486
    CHANNELS 3 Zrotation Xrotation Yrotation
    JOINT right_femur_tibia
    {
      OFFSET -0.8047443 -44.0398 -0.1307829
      CHANNELS 3 Zrotation Xrotation Yrotation
      JOINT right_tibia_foot
      {
        OFFSET 3.006224 -47.83518 -5
        CHANNELS 3 Zrotation Xrotation Yrotation
        End Site
        {
          OFFSET 0 -5 15
        }
      }
    }
  }
  JOINT pelvis_left_femur
  {
    OFFSET 10.78128 -3.44521 -0.5502486
    CHANNELS 3 Zrotation Xrotation Yrotation
    JOINT left_femur_tibia
    {
      OFFSET 0.8047443 -44.0398 -0.1307829
      CHANNELS 3 Zrotation Xrotation Yrotation
      JOINT left_tibia_foot
      {
        OFFSET -4.370144 -48.10324 -4.275266
        CHANNELS 3 Zrotation Xrotation Yrotation
        End Site
        {
          OFFSET 0 -5 15
        }
      }
    }
  }
  JOINT pelvis_spine1
  {
    OFFSET 0 6.468898 -3.129235
    CHANNELS 3 Zrotation Xrotation Yrotation
    JOINT spine1
    {
      OFFSET 0 23.15396 4.99043
      CHANNELS 3 Zrotation Xrotation Yrotation
      JOINT spine2
      {
        OFFSET 0 20.79997 -5.064912
        CHANNELS 3 Zrotation Xrotation Yrotation
        JOINT neck
        {
          OFFSET 0 14.38658 9.616178
          CHANNELS 3 Zrotation Xrotation Yrotation
          End Site
          {
            OFFSET 0 20 0
          }
        }
      }
      JOINT right_manubrium
      {
        OFFSET -5.722621 16.35077 3.967754
        CHANNELS 3 Zrotation Xrotation Yrotation
        JOINT right_clavicle
        {
          OFFSET -13.16364 1.694482 -4.693211
          CHANNELS 3 Zrotation Xrotation Yrotation
          JOINT right_humerus
          {
            OFFSET -28.5034 -0.3100689 -2.792744
            CHANNELS 3 Zrotation Xrotation Yrotation
            JOINT right_radius
            {
              OFFSET -25.15693 0.02248979 -1.271978
              CHANNELS 3 Zrotation Xrotation Yrotation
              End Site
              {
                OFFSET -15 0 0
              }
            }
          }
        }
      }
      JOINT left_manubrium
      {
        OFFSET 5.722621 16.35077 3.967754
        CHANNELS 3 Zrotation Xrotation Yrotation
        JOINT left_clavicle
        {
          OFFSET 13.16364 1.694482 -4.693211
          CHANNELS 3 Zrotation Xrotation Yrotation
          JOINT left_humerus
          {
            OFFSET 29.39168 -1.063119 -2.237045
            CHANNELS 3 Zrotation Xrotation Yrotation
            JOINT left_radius
            {
              OFFSET 24.59957 -0.9528479 0.9047498
              CHANNELS 3 Zrotation Xrotation Yrotation
              End Site
              {
                OFFSET 15 -0 -0
              }
            }
          }
        }
      }
    }
  }
}
MOTION
Frames: 17
Frame Time: 0.0416666666667
0 103.5113 0 2.610293 -0.3401451 0.2766402 3.139972 -15.58876 9.434571 -0 39.4087 -0 -4.8855 -17.68841 -1.703921 -9.469556 9.347771 -24.06413 -0 4.86209 -0 22.33965 -8.960055 31.16447 -2.338343 -2.349066 5.12473 1.686074 11.04293 -6.798313 1.924321 20.93612 6.367345 4.086829 -24.27232 8.900423 7.115889 -18.64054 10.78875 85.16921 36.29272 -18.742 -0 0 14.91775 -8.68674 9.916064 4.101536 7.262623 -21.14991 -2.266131 -92.04361 22.99881 19.29607 0 0 -16.90524 13.34685 14.02938 -0.500409
0.3932801 104.0179 1.49854 1.808237 0.5736458 0.5188358 4.471268 -17.85427 10.10137 -0 39.95444 -0 -5.7436 -16.04479 -1.325164 -9.060238 8.673731 -23.87285 -0 5.809032 -0 22.43411 -9.070432 30.87221 -2.331608 -2.301024 4.958191 1.91583 10.85267 -7.011386 1.855715 20.76546 6.5201 4.056507 -24.67314 9.015987 6.939262 -18.54188 10.8855 85.27152 36.04247 -18.80312 -0 0 14.67496 -8.844057 10.0172 4.289412 7.297372 -21.16986 -1.910654 -91.77272 22.50132 18.85532 0 0 -16.93949 13.46483 13.91923 -0.9841401
0.7283251 104.1884 3.775678 1.429339 1.36855 0.7237027 4.458642 -22.29458 6.19688 -0 29.2861 -0 -6.700874 -12.02206 -0.4039272 -8.249363 11.03362 -21.19605 -0 6.672158 -0 17.30702 -14.31192 26.87517 -2.306969 -2.242168 5.026614 1.808251 10.95478 -6.875415 1.877578 20.88333 6.430359 4.078702 -24.44002 8.902041 7.023445 -18.53531 10.84685 85.21188 36.11896 -18.75731 -0 0 14.66972 -8.812896 9.938679 4.290507 7.180221 -21.10997 -2.204816 -91.86858 22.86563 19.07241 0 0 -17.00312 13.18552 13.86454 -0.4535275
1.074805 104.2681 6.271598 1.0405 1.979825 0.9381761 4.865943 -24.25605 5.810558 -0 26.50792 -0 -6.924818 -10.49447 -0.3135872 -7.868007 11.42951 -20.47687 -0 6.906043 -0 15.48234 -15.95219 25.63403 -2.311108 -2.271059 5.007807 1.852328 10.90673 -6.901332 1.876033 20.92728 6.38178 4.020737 -24.45868 8.885705 7.005268 -18.55563 10.85073 85.24347 36.03415 -18.84429 -0 0 14.70637 -8.680647 9.837219 4.277409 7.083794 -21.04014 -2.263229 -92.03026 23.18605 19.31708 0 0 -16.94947 12.81844 13.99877 0.01773993
1.411245 104.2618 9.21563 0.4859445 2.542241 1.183796 5.353268 -27.17104 4.588598 -0 23.05096 -0 -7.779282 -7.788768 0.1775344 -7.360389 12.06528 -19.01326 -0 8.272921 -0 13.56333 -17.4308 23.60065 -2.335508 -2.371799 5.001378 1.894526 10.84185 -6.936642 1.890046 21.0048 6.290649 3.922542 -24.46419 8.880149 6.992994 -18.63266 10.83715 85.29841 35.94589 -18.99824 -0 0 14.86393 -8.41071 9.668282 4.174848 6.975123 -20.94795 -2.337171 -92.35937 23.72504 19.77849 0 0 -16.81808 12.30672 14.29895 0.7074425
1.750375 104.2385 12.49449 -0.02282624 3.117521 1.46274 5.939956 -29.31611 4.194836 -0 21.04598 -0 -8.327086 -5.786543 0.4644168 -6.9617 12.35596 -18.03438 -0 9.576333 -0 12.22938 -18.19655 22.16885 -2.355457 -2.453318 4.955705 1.985488 10.73211 -7.007508 1.890625 21.07322 6.213099 3.808096 -24.53573 8.881533 6.941078 -18.68485 10.83945 85.38552 35.78594 -19.18524 -0 0 14.95738 -8.148076 9.485083 4.116603 6.831561 -20.83277 -2.388787 -92.67575 24.28279 20.21677 0 0 -16.70378 11.67867 14.58647 1.487111
2.090063 104.2598 16.19257 -0.5947049 3.626586 1.78737 6.623419 -31.2843 3.734793 -0 19.43263 -0 -9.07151 -3.55036 0.917564 -6.538458 12.59577 -16.88861 -0 11.82924 -0 11.01557 -18.37109 20.53385 -2.367282 -2.503272 4.883854 2.101644 10.59857 -7.090325 1.880156 21.14108 6.146845 3.692259 -24.63563 8.876286 6.866981 -18.70756 10.85219 85.48794 35.58689 -19.3819 -0 0 14.9823 -7.912968 9.296784 4.105024 6.655955 -20.69979 -2.446855 -92.96577 24.85421 20.62092 0 0 -16.62498 10.95914 14.83178 2.348314
2.440685 104.4077 20.31592 -1.22773 4.095053 2.153353 7.444466 -32.72343 3.555662 -0 18.56795 -0 -9.839802 -1.501475 1.402781 -6.08424 12.61718 -15.84039 -0 14.84545 -0 9.770825 -17.96139 18.8551 -2.366143 -2.502879 4.787058 2.236991 10.45049 -7.176644 1.855029 21.2033 6.100482 3.588257 -24.75376 8.856383 6.777522 -18.68653 10.87913 85.59236 35.36464 -19.56518 -0 0 14.9123 -7.742154 9.122852 4.161638 6.451355 -20.55542 -2.516143 -93.18706 25.3906 20.94042 0 0 -16.60353 10.185 14.99095 3.242742
2.817459 104.7836 24.89471 -1.962596 4.460031 2.544111 8.408857 -33.50114 3.535087 -0 18.44643 -0 -10.73257 0.3915301 1.990483 -5.546462 12.30095 -14.78208 -0 19.17171 -0 8.29623 -16.7952 16.91005 -2.350273 -2.447162 4.677375 2.373311 10.30367 -7.2508 1.817097 21.26481 6.071706 3.505915 -24.85919 8.811997 6.687847 -18.62138 10.91662 85.68483 35.14669 -19.71873 -0 0 14.75262 -7.647737 8.972824 4.284786 6.222902 -20.40574 -2.613799 -93.32931 25.89109 21.16874 0 0 -16.65523 9.375462 15.04846 4.164596
3.247444 105.4963 29.91744 -2.79192 4.709596 2.922046 9.459894 -33.38204 3.723462 -0 19.04347 -0 -11.67892 1.851651 2.633753 -4.905469 11.38902 -13.77614 -0 25.00127 -0 6.443144 -14.78247 14.65043 -2.319882 -2.336551 4.564242 2.498067 10.16725 -7.303777 1.767799 21.3299 6.057761 3.449194 -24.92967 8.737281 6.607063 -18.51569 10.96216 85.75633 34.95045 -19.83187 -0 0 14.51539 -7.635084 8.852235 4.471141 5.974364 -20.25462 -2.747764 -93.39123 26.3633 21.30956 0 0 -16.78794 8.535544 15.00188 5.119975
3.766184 106.6368 35.32892 -3.646089 4.822262 3.223041 10.41263 -32.129 4.033795 -0 19.99443 -0 -12.57358 2.599441 3.275872 -4.176966 9.562031 -12.82452 -0 32.54583 -0 4.162072 -11.85222 12.03932 -2.275399 -2.174274 4.460532 2.59446 10.04943 -7.324342 1.709267 21.40703 6.054351 3.42101 -24.93618 8.625927 6.54363 -18.37781 11.01131 85.79751 34.79396 -19.89299 -0 0 14.22403 -7.706354 8.763999 4.713889 5.709245 -20.1052 -2.927047 -93.38409 26.83578 21.38374 0 0 -17.01038 7.652447 14.85782 6.142248
4.40472 108.2363 41.01682 -4.347674 4.808786 3.36435 10.9538 -29.60109 4.318476 -0 20.50156 -0 -13.21249 2.410461 3.790816 -3.450331 6.565817 -11.92693 -0 41.56971 -0 1.591113 -8.184447 9.204352 -2.217148 -1.965504 4.378581 2.647506 9.951399 -7.304938 1.641614 21.50301 6.061521 3.423442 -24.85457 8.474515 6.500551 -18.21868 11.06138 85.79826 34.69138 -19.88716 -0 0 13.90922 -7.8696 8.713671 5.009972 5.433799 -19.96199 -3.148244 -93.32423 27.33761 21.41801 0 0 -17.32744 6.704001 14.63061 7.271599
5.160484 110.2311 46.8376 -4.623826 4.656603 3.267576 10.7677 -25.82841 4.395248 -0 19.55481 -0 -13.38074 1.384927 4.010069 -2.879122 2.454803 -11.02971 -0 51.26348 -0 -0.9152006 -4.322662 6.490458 -2.143494 -1.717101 4.333571 2.63951 9.868547 -7.239268 1.562625 21.62075 6.08714 3.462152 -24.66171 8.282769 6.477034 -18.05249 11.11087 85.74331 34.66077 -19.79064 -0 0 13.613 -8.147296 8.716585 5.360369 5.163998 -19.83637 -3.391742 -93.2301 27.88947 21.44138 0 0 -17.74394 5.671533 14.34147 8.542318
5.968063 112.464 52.66289 -4.225775 4.249691 2.897811 9.772442 -21.03208 4.184275 -0 16.64426 -0 -12.97465 0.03515365 3.764347 -2.595436 -2.236682 -10.06173 -0 60.17366 -0 -2.906881 -1.148005 4.49432 -2.049024 -1.436927 4.343223 2.551654 9.789515 -7.124453 1.466926 21.75332 6.150775 3.548245 -24.34171 8.055788 6.466201 -17.89582 11.16102 85.6102 34.72499 -19.56743 -0 0 13.38635 -8.587739 8.805752 5.774731 4.931051 -19.75098 -3.613202 -93.11325 28.48118 21.47353 0 0 -18.26296 4.55921 14.01661 9.955747
6.706552 114.7234 58.39954 -3.130914 3.328257 2.304576 8.241636 -15.51981 3.764587 -0 12.44473 -0 -12.1058 -1.079906 2.980719 -2.574622 -6.768032 -9.003158 -0 66.56678 -0 -4.085887 0.5218572 3.910709 -1.922863 -1.132691 4.430286 2.362961 9.700813 -6.958966 1.347496 21.88093 6.281888 3.698374 -23.88719 7.803766 6.454229 -17.76853 11.21536 85.36528 34.91272 -19.1624 -0 0 13.2874 -9.275572 9.03665 6.276142 4.783307 -19.74087 -3.744044 -92.97044 29.05182 21.51788 0 0 -18.88103 3.416169 13.68313 11.45549
7.263747 116.7823 63.96085 -1.651116 1.692195 1.63575 6.656338 -9.624969 3.279576 -0 8.512795 -0 -11.07475 -1.946118 1.82395 -2.575507 -10.81496 -7.916394 -0 68.96116 -0 -4.455136 0.4521961 5.115375 -1.750334 -0.8127298 4.624692 2.052674 9.594087 -6.739391 1.199534 21.9715 6.509081 3.927834 -23.30255 7.54002 6.418019 -17.69808 11.2787 84.95806 35.24988 -18.49151 -0 0 13.38123 -10.33484 9.480633 6.908477 4.779246 -19.84492 -3.70012 -92.7822 29.47368 21.56622 0 0 -19.56774 2.355 13.36489 12.90752
7.614721 118.4229 69.2654 -0.2936064 -0.4501221 1.056024 5.450955 -3.769444 2.80298 -0 6.045529 -0 -10.19161 -3.137794 0.7007329 -2.226447 -14.66308 -6.823862 -0 66.52304 -0 -4.230354 -0.8550345 7.738687 -1.521452 -0.4927788 4.961898 1.609049 9.47152 -6.457653 1.027339 21.98819 6.838418 4.234458 -22.61179 7.279124 6.322365 -17.72802 11.35315 84.31921 35.73664 -17.43999 -0 0 13.74345 -11.90413 10.19479 7.73717 4.968242 -20.08193 -3.40314 -92.53127 29.56422 21.62705 0 0 -20.2323 1.547455 13.08177 14.1075
